<?xml version="1.0" standalone="no"?>
<!DOCTYPE svg PUBLIC "-//W3C//DTD SVG 20010904//EN"
 "http://www.w3.org/TR/2001/REC-SVG-20010904/DTD/svg10.dtd">
<svg version="1.0" xmlns="http://www.w3.org/2000/svg"
 width="700.000000pt" height="700.000000pt" viewBox="0 0 700.000000 700.000000"
 preserveAspectRatio="xMidYMid meet">
<metadata>
Created by potrace 1.14, written by Peter Selinger 2001-2017
</metadata>
<g transform="translate(0.000000,700.000000) scale(0.100000,-0.100000)"
fill="#000000" stroke="none">
<path d="M3278 6995 c-1 -1 -42 -5 -89 -9 -47 -4 -95 -8 -105 -10 -10 -2 -41
-7 -69 -10 -335 -44 -715 -158 -1030 -312 -180 -87 -448 -247 -555 -331 -8 -6
-51 -40 -95 -74 -340 -264 -650 -624 -875 -1014 -47 -83 -170 -327 -170 -340
0 -3 -9 -24 -20 -48 -57 -123 -157 -435 -186 -582 -2 -11 -10 -54 -19 -95 -29
-147 -36 -199 -52 -370 -15 -160 -7 -607 12 -708 1 -9 6 -42 9 -73 4 -31 9
-67 12 -80 2 -13 7 -42 9 -64 3 -22 8 -48 11 -57 3 -9 7 -25 9 -36 57 -296
212 -714 360 -972 21 -36 46 -81 57 -100 11 -19 29 -47 39 -62 11 -14 19 -29
19 -32 0 -4 4 -12 10 -19 5 -7 46 -64 91 -126 118 -167 188 -251 345 -412 111
-114 167 -166 259 -243 90 -74 90 -74 160 -126 33 -25 62 -48 63 -52 2 -5 8
-8 13 -8 6 0 40 -21 76 -46 83 -58 290 -177 413 -236 339 -164 640 -257 1015
-313 22 -4 51 -8 65 -10 178 -27 697 -27 875 0 292 44 479 88 710 167 183 62
485 202 617 285 21 12 40 23 42 23 11 0 269 179 356 247 152 119 326 282 449
422 31 35 63 71 71 80 13 14 67 82 92 116 4 6 18 24 32 40 35 44 176 254 176
262 0 3 6 14 14 22 34 40 150 268 251 496 15 35 73 200 104 295 25 79 74 285
95 400 14 81 17 101 32 215 3 27 8 61 10 75 9 49 11 526 4 605 -16 160 -21
210 -25 225 -2 8 -7 35 -10 60 -17 129 -80 384 -136 552 -348 1036 -1168 1857
-2204 2206 -168 57 -420 119 -555 137 -19 3 -46 7 -60 10 -13 2 -52 7 -86 11
-33 3 -74 8 -90 10 -33 5 -540 14 -546 9z"/>
</g>
</svg>
