<svg id="Layer_1" data-name="Layer 1" xmlns="http://www.w3.org/2000/svg" viewBox="0 0 2000 2000"><defs><style>.cls-1{fill:#c7b299;}.cls-2{fill:#fff;}.cls-3{fill:#603813;}.cls-4{fill:#a67c52;}.cls-5{fill:#42210b;}</style></defs><path class="cls-1" d="M2000,1000c0,428.72-269.79,794.43-648.86,936.6a1004.35,1004.35,0,0,1-691.49,4C274.92,1801.35,0,1432.78,0,1000,0,447.72,447.72,0,1000,0S2000,447.72,2000,1000Z" transform="translate(0 0)"/><path class="cls-2" d="M1584.24,914.52v53.11c-6.39,31.55-18.42,61.94-35.45,90.63-.29.5-.58,1-.89,1.49v0a350.38,350.38,0,0,1-28.34,40.34l-1.29,1.58a.1.1,0,0,0,0,0s0,0,0,0c-101.55,163.45-170.09,473.51-170.09,829.14,0,1.9,0,3.8,0,5.69a1004.35,1004.35,0,0,1-691.49,4c0-3.22,0-6.44,0-9.68,0-354.7-68.17-664.11-169.3-827.88-.41-.5-.83-1-1.24-1.51a350.89,350.89,0,0,1-30.28-43.09c-.27-.46-.54-.91-.79-1.37a306.86,306.86,0,0,1-16.88-33q8.94,8.13,17.67,17.64c-25.52-38-39.9-79.21-40.77-122.38,0-1.4-.05-2.79-.05-4.18v-.59Z" transform="translate(0 0)"/><ellipse class="cls-2" cx="417.45" cy="865.93" rx="95.43" ry="137.59" transform="translate(-209.89 137.55) rotate(-15)"/><ellipse class="cls-2" cx="1587.24" cy="865.93" rx="137.59" ry="95.43" transform="translate(340.01 2174.96) rotate(-75)"/><ellipse class="cls-3" cx="1586.8" cy="866.4" rx="93.94" ry="65.16" transform="translate(339.22 2174.89) rotate(-75)"/><ellipse class="cls-3" cx="418.41" cy="868.55" rx="65.16" ry="93.94" transform="translate(-210.54 137.89) rotate(-15)"/><path class="cls-2" d="M1587.8,921a265,265,0,0,1-5.27,52.53c-6.38,31.55-18.42,61.93-35.45,90.62-.29.5-.58,1-.89,1.5h0a348.29,348.29,0,0,1-28.34,40.34l-1.29,1.58s0,0,0,.06v0c-99.57,121.45-293.28,203.86-515.94,203.86-221.89,0-415-81.84-514.89-202.59-.41-.51-.84-1-1.25-1.51a352.42,352.42,0,0,1-30.28-43.09c-.27-.46-.54-.92-.79-1.37a307.94,307.94,0,0,1-16.88-33,271.12,271.12,0,0,1-23.1-104.74c0-1.39-.05-2.79-.05-4.18v-.67c.54-215.37,263.25-389.85,587.24-389.85C1324.88,530.44,1587.8,705.28,1587.8,921Z" transform="translate(0 0)"/><path class="cls-2" d="M1551.79,1058.26c-.29.5-.58,1-.89,1.49v0a350.38,350.38,0,0,1-28.34,40.34l-1.29,1.58A438.06,438.06,0,0,1,1551.79,1058.26Z" transform="translate(0 0)"/><path class="cls-2" d="M458.85,1058.43c-.27-.46-.54-.91-.79-1.37q8.63,10.67,17,22.66,7.77,11.1,15.29,23.31c-.41-.5-.83-1-1.24-1.51A350.89,350.89,0,0,1,458.85,1058.43Z" transform="translate(0 0)"/><path class="cls-4" d="M878.22,777.52c36.56,58.06,13.24,95.47-21.08,111.24C813.82,908.67,654.57,927.4,637,864.17s47.52-120.25,118.27-134.66C818.5,716.63,858.31,745.9,878.22,777.52Z" transform="translate(0 0)"/><path class="cls-4" d="M1120,777.24c-36.56,58.07-13.23,95.48,21.08,111.24,43.33,19.91,202.58,38.65,220.14-24.59S1313.74,743.65,1243,729.23C1179.76,716.35,1140,745.63,1120,777.24Z" transform="translate(0 0)"/><circle class="cls-5" cx="803.28" cy="817.33" r="66.74"/><circle class="cls-5" cx="1203.75" cy="817.33" r="66.74"/><circle class="cls-2" cx="786.3" cy="780.44" r="6.44"/><circle class="cls-2" cx="1178.57" cy="779.27" r="5.27"/><path class="cls-5" d="M1090.16,1013.56c0,43.87-40.36,79.43-90.16,79.43s-90.16-35.56-90.16-79.43S950.2,962,1000,962,1090.16,969.7,1090.16,1013.56Z" transform="translate(0 0)"/></svg>